<svg xmlns="http://www.w3.org/2000/svg" viewBox="0 0 64 64">
  <rect width="64" height="64" rx="16" fill="#efedf8"/>
  <path
    d="M32 8c9.2 10.5 17 20.3 17 31.2C49 49 41.9 56 32 56s-17-7-17-16.8C15 28.3 22.8 18.5 32 8Z"
    fill="#0B004F"
  />
  <path
    d="M22 39.5c0 6 4.3 10.5 10.1 10.5 3.1 0 5.8-1.2 7.6-3.4-1.5.7-3.2 1-5 1-6.9 0-11.6-4.6-11.6-11.1 0-2.8.8-5.7 2.2-8.6-2.1 3.5-3.3 7.3-3.3 11.6Z"
    fill="#ffffff"
    opacity=".38"
  />
  <text
    x="32"
    y="39"
    fill="#ffffff"
    font-family="Arial, Helvetica, sans-serif"
    font-size="15"
    font-weight="700"
    letter-spacing="0"
    text-anchor="middle"
  >RO</text>
</svg>
